<?xml version="1.0" standalone="no"?>
<svg xmlns:xlink="http://www.w3.org/1999/xlink" id="wave" style="transform:rotate(0deg); transition: 0.3s" viewBox="0 0 1440 190" version="1.1" xmlns="http://www.w3.org/2000/svg"><defs><linearGradient id="sw-gradient-0" x1="0" x2="0" y1="1" y2="0"><stop stop-color="rgba(48, 129, 208, 1)" offset="0%"/><stop stop-color="rgba(150, 239, 255, 1)" offset="100%"/></linearGradient></defs><path style="transform:translate(0, 0px); opacity:1" fill="url(#sw-gradient-0)" d="M0,57L21.8,57C43.6,57,87,57,131,57C174.5,57,218,57,262,66.5C305.5,76,349,95,393,91.8C436.4,89,480,63,524,66.5C567.3,70,611,101,655,120.3C698.2,139,742,146,785,133C829.1,120,873,89,916,91.8C960,95,1004,133,1047,142.5C1090.9,152,1135,133,1178,123.5C1221.8,114,1265,114,1309,120.3C1352.7,127,1396,139,1440,129.8C1483.6,120,1527,89,1571,85.5C1614.5,82,1658,108,1702,120.3C1745.5,133,1789,133,1833,120.3C1876.4,108,1920,82,1964,88.7C2007.3,95,2051,133,2095,145.7C2138.2,158,2182,146,2225,133C2269.1,120,2313,108,2356,98.2C2400,89,2444,82,2487,76C2530.9,70,2575,63,2618,72.8C2661.8,82,2705,108,2749,104.5C2792.7,101,2836,70,2880,69.7C2923.6,70,2967,101,3011,107.7C3054.5,114,3098,95,3120,85.5L3141.8,76L3141.8,190L3120,190C3098.2,190,3055,190,3011,190C2967.3,190,2924,190,2880,190C2836.4,190,2793,190,2749,190C2705.5,190,2662,190,2618,190C2574.5,190,2531,190,2487,190C2443.6,190,2400,190,2356,190C2312.7,190,2269,190,2225,190C2181.8,190,2138,190,2095,190C2050.9,190,2007,190,1964,190C1920,190,1876,190,1833,190C1789.1,190,1745,190,1702,190C1658.2,190,1615,190,1571,190C1527.3,190,1484,190,1440,190C1396.4,190,1353,190,1309,190C1265.5,190,1222,190,1178,190C1134.5,190,1091,190,1047,190C1003.6,190,960,190,916,190C872.7,190,829,190,785,190C741.8,190,698,190,655,190C610.9,190,567,190,524,190C480,190,436,190,393,190C349.1,190,305,190,262,190C218.2,190,175,190,131,190C87.3,190,44,190,22,190L0,190Z"/><defs><linearGradient id="sw-gradient-1" x1="0" x2="0" y1="1" y2="0"><stop stop-color="rgba(48, 129, 208, 1)" offset="0%"/><stop stop-color="rgba(150, 239, 255, 1)" offset="100%"/></linearGradient></defs><path style="transform:translate(0, 50px); opacity:0.9" fill="url(#sw-gradient-1)" d="M0,38L21.8,53.8C43.6,70,87,101,131,120.3C174.5,139,218,146,262,126.7C305.5,108,349,63,393,60.2C436.4,57,480,95,524,95C567.3,95,611,57,655,34.8C698.2,13,742,6,785,9.5C829.1,13,873,25,916,38C960,51,1004,63,1047,60.2C1090.9,57,1135,38,1178,47.5C1221.8,57,1265,95,1309,114C1352.7,133,1396,133,1440,117.2C1483.6,101,1527,70,1571,66.5C1614.5,63,1658,89,1702,85.5C1745.5,82,1789,51,1833,41.2C1876.4,32,1920,44,1964,60.2C2007.3,76,2051,95,2095,98.2C2138.2,101,2182,89,2225,69.7C2269.1,51,2313,25,2356,22.2C2400,19,2444,38,2487,44.3C2530.9,51,2575,44,2618,34.8C2661.8,25,2705,13,2749,31.7C2792.7,51,2836,101,2880,126.7C2923.6,152,2967,152,3011,152C3054.5,152,3098,152,3120,152L3141.8,152L3141.8,190L3120,190C3098.2,190,3055,190,3011,190C2967.3,190,2924,190,2880,190C2836.4,190,2793,190,2749,190C2705.5,190,2662,190,2618,190C2574.5,190,2531,190,2487,190C2443.6,190,2400,190,2356,190C2312.7,190,2269,190,2225,190C2181.8,190,2138,190,2095,190C2050.9,190,2007,190,1964,190C1920,190,1876,190,1833,190C1789.1,190,1745,190,1702,190C1658.2,190,1615,190,1571,190C1527.3,190,1484,190,1440,190C1396.4,190,1353,190,1309,190C1265.5,190,1222,190,1178,190C1134.5,190,1091,190,1047,190C1003.6,190,960,190,916,190C872.7,190,829,190,785,190C741.8,190,698,190,655,190C610.9,190,567,190,524,190C480,190,436,190,393,190C349.1,190,305,190,262,190C218.2,190,175,190,131,190C87.3,190,44,190,22,190L0,190Z"/></svg>